<?xml version="1.0" encoding="UTF-8" standalone="no"?>
<svg width="150px" height="32px" viewBox="0 0 150 32" version="1.1" xmlns="http://www.w3.org/2000/svg" xmlns:xlink="http://www.w3.org/1999/xlink">
    <!-- Generator: sketchtool 40.3 (33839) - http://www.bohemiancoding.com/sketch -->
    <title>BBECE1FA-56E0-40A3-8775-6F5FECCE76DE</title>
    <desc>Created with sketchtool.</desc>
    <defs>
        <polygon id="path-1" points="6.65580205 17.7995734 6.65580205 0.475853242 0.415290102 0.475853242 0.415290102 17.7995734 6.65580205 17.7995734"></polygon>
        <polygon id="path-3" points="6.93815383e-21 0.471501706 6.93815383e-21 16.6648464 5.21656997 16.6648464 5.21656997 0.471501706 0 0.471501706"></polygon>
    </defs>
    <g id="desktop" stroke="none" stroke-width="1" fill="none" fill-rule="evenodd">
        <g id="desktop-assets" transform="translate(-272.000000, -275.000000)">
            <g id="header_logo_big" transform="translate(272.000000, 275.000000)">
                <path d="M100.277304,14.429744 C100.277304,14.7000512 100.168259,14.93657 99.9506826,15.1393003 C99.7331058,15.3420307 99.4663823,15.4433959 99.1510239,15.4433959 L98.9032423,15.4433959 C98.6027304,15.4433959 98.344198,15.3420307 98.1266212,15.1393003 C97.9085324,14.93657 97.7994881,14.7000512 97.7994881,14.429744 L97.7994881,10.2625085 C97.7994881,9.97735495 97.9085324,9.733157 98.1266212,9.53042662 C98.344198,9.32769625 98.6027304,9.22633106 98.9032423,9.22633106 L99.1510239,9.22633106 C99.4663823,9.22633106 99.7331058,9.32769625 99.9506826,9.53042662 C100.168259,9.733157 100.277304,9.97735495 100.277304,10.2625085 L100.277304,14.429744 L100.277304,14.429744 Z M101.369795,8.13383959 C100.761604,7.55585324 100.021843,7.2666041 99.1510239,7.2666041 L98.7686007,7.2666041 C97.9269625,7.29680887 97.2174061,7.60090444 96.6399317,8.17889078 C96.0614334,8.75738908 95.7721843,9.4444198 95.7721843,10.2399829 L95.7721843,23.5956143 C95.7721843,24.1541468 96.224744,24.6067065 96.7827645,24.6067065 C97.3412969,24.6067065 97.7938567,24.1541468 97.7938567,23.5956143 L97.7994881,17.2229181 C98.1,17.3283788 98.3923208,17.3882765 98.6779863,17.4031229 C98.9180887,17.4184812 99.0757679,17.4261604 99.1510239,17.4261604 C100.006997,17.4410068 100.742662,17.1517577 101.358532,16.558413 C101.973891,15.9655802 102.282082,15.2555119 102.282082,14.429744 L102.282082,10.2625085 L102.282082,10.2399829 C102.282082,9.41421502 101.977986,8.71233788 101.369795,8.13383959 L101.369795,8.13383959 Z" id="Fill-1" fill="#FFFFFF"></path>
                <path d="M113.26029,12.4284471 C112.719164,12.4284471 112.280427,12.8671843 112.280427,13.4083106 L112.280427,23.6267406 C112.280427,24.1678669 112.719164,24.6066041 113.26029,24.6066041 C113.801416,24.6066041 114.240154,24.1678669 114.240154,23.6267406 L114.240154,13.4083106 C114.240154,12.8671843 113.801416,12.4284471 113.26029,12.4284471" id="Fill-3" fill="#FFFFFF"></path>
                <path d="M113.26029,8.88732082 C112.719164,8.88732082 112.280427,9.32605802 112.280427,9.8671843 L112.280427,10.3136007 C112.280427,10.854727 112.719164,11.2934642 113.26029,11.2934642 C113.801416,11.2934642 114.240154,10.854727 114.240154,10.3136007 L114.240154,9.8671843 C114.240154,9.32605802 113.801416,8.88732082 113.26029,8.88732082" id="Fill-5" fill="#FFFFFF"></path>
                <path d="M121.962901,12.4284471 C121.402833,12.4284471 120.949249,12.8820307 120.949249,13.442099 L120.949249,14.4521672 C120.949249,14.8432935 120.806416,15.9767406 120.521263,17.8540444 C120.205904,19.8362969 119.980137,20.8269113 119.845495,20.8269113 C119.710341,20.8269113 119.485085,19.8362969 119.169215,17.8540444 C118.884061,15.9767406 118.741741,14.8432935 118.741741,14.4521672 L118.738157,13.4083106 C118.719727,12.8646246 118.27587,12.4284471 117.728089,12.4284471 C117.179795,12.4284471 116.735939,12.8646246 116.717509,13.4083106 L116.714437,14.4521672 C116.714437,15.6234983 117.052321,17.5084812 117.728089,20.1060922 C118.493959,23.0497782 119.19942,24.5211092 119.845495,24.5211092 C120.491058,24.5211092 121.196519,23.0497782 121.962901,20.1060922 C122.638669,17.5084812 122.976553,15.6234983 122.976553,14.4521672 L122.976553,13.442099 C122.976553,12.8820307 122.522969,12.4284471 121.962901,12.4284471" id="Fill-7" fill="#FFFFFF"></path>
                <path d="M139.753413,13.3708362 C139.145222,12.7851706 138.405461,12.4923379 137.534642,12.4923379 C136.678669,12.4923379 135.943003,12.7851706 135.327133,13.3708362 C134.710751,13.9570137 134.403584,14.6624744 134.403584,15.4887543 L134.403584,21.5256143 C134.403584,22.3513823 134.710751,23.0573549 135.327133,23.6425085 C135.943003,24.2281741 136.678669,24.5210068 137.534642,24.5210068 C138.405461,24.5210068 139.145222,24.2281741 139.753413,23.6425085 C140.361092,23.0573549 140.6657,22.3513823 140.6657,21.5256143 L140.6657,21.3674232 C140.6657,20.8140102 140.216724,20.3650341 139.663311,20.3650341 C139.109898,20.3650341 138.660922,20.8140102 138.660922,21.3674232 L138.660922,21.5256143 C138.660922,21.8107679 138.551365,22.0549659 138.3343,22.2571843 C138.116724,22.4604266 137.85,22.5612799 137.534642,22.5612799 C137.23413,22.5612799 136.975085,22.4604266 136.756997,22.2571843 C136.539932,22.0549659 136.430887,21.8107679 136.430887,21.5256143 L136.430887,15.4887543 C136.430887,15.2030887 136.539932,14.9629863 136.756997,14.7679352 C136.975085,14.572884 137.23413,14.4745904 137.534642,14.4745904 C137.85,14.4745904 138.116724,14.572884 138.3343,14.7679352 C138.551365,14.9629863 138.660922,15.2030887 138.660922,15.4887543 L138.662969,15.6684471 C138.670137,16.2157167 139.115017,16.6570137 139.663823,16.6570137 C140.212116,16.6570137 140.656997,16.2157167 140.664164,15.6684471 L140.6657,15.4887543 C140.6657,14.6624744 140.361092,13.9570137 139.753413,13.3708362" id="Fill-9" fill="#FFFFFF"></path>
                <path d="M129.793925,21.5254608 C129.793925,21.8111263 129.684881,22.0507167 129.467304,22.2457679 C129.249727,22.4413311 128.990683,22.5386007 128.690171,22.5386007 C128.389659,22.5386007 128.130614,22.4413311 127.913038,22.2457679 C127.694949,22.0507167 127.586416,21.8111263 127.586416,21.5254608 L127.586416,20.1063481 C127.586416,19.8211945 127.694949,19.5805802 127.913038,19.3850171 C128.130614,19.1899659 128.389659,19.0926962 128.690171,19.0926962 C128.990683,19.0926962 129.249727,19.1899659 129.467304,19.3850171 C129.684881,19.5805802 129.793925,19.8211945 129.793925,20.1063481 L129.793925,21.5254608 Z M130.908942,13.3824573 C130.300751,12.804471 129.56099,12.5147099 128.690171,12.5147099 C127.819352,12.5147099 127.07959,12.804471 126.471399,13.3824573 C125.863208,13.9609556 125.559113,14.6628328 125.559113,15.4886007 L125.559113,15.654471 C125.559113,16.2124915 126.01116,16.6650512 126.569181,16.6650512 C127.127201,16.6650512 127.579249,16.2124915 127.579249,15.654471 L127.586416,15.4886007 C127.586416,15.2182935 127.694949,14.9817747 127.913038,14.7785324 C128.130614,14.576314 128.389659,14.4749488 128.690171,14.4749488 C128.990683,14.4749488 129.249727,14.576314 129.467304,14.7785324 C129.684881,14.9817747 129.793925,15.2182935 129.793925,15.4886007 L129.793925,17.3126621 C129.433515,17.1780205 129.065427,17.1104437 128.690171,17.1104437 C127.819352,17.1104437 127.07959,17.4027645 126.471399,17.988942 C125.863208,18.5740956 125.559113,19.2805802 125.559113,20.1063481 L125.559113,21.5254608 C125.559113,22.3512287 125.863208,23.0572014 126.471399,23.6428669 C127.07959,24.2280205 127.819352,24.5213652 128.690171,24.5213652 C129.546143,24.5213652 130.281809,24.2280205 130.897679,23.6428669 C131.513038,23.0572014 131.821229,22.3589078 131.821229,21.5479863 L131.821229,15.4886007 C131.821229,14.6628328 131.517133,13.9609556 130.908942,13.3824573 L130.908942,13.3824573 Z" id="Fill-11" fill="#FFFFFF"></path>
                <g id="Group-15" transform="translate(142.832765, 12.002969)">
                    <mask id="mask-2" fill="white">
                        <use xlink:href="#path-1"></use>
                    </mask>
                    <g id="Clip-14"></g>
                    <path d="M5.65709898,0.475853242 C5.10573379,0.475853242 4.65829352,0.923293515 4.65829352,1.4746587 L4.65778157,10.4598123 L3.52484642,10.4598123 C3.22228669,10.4598123 2.96119454,10.3584471 2.74208191,10.1567406 C2.52296928,9.95452218 2.41341297,9.71134812 2.41341297,9.42670648 L2.41290102,1.4746587 C2.41290102,0.923293515 1.9659727,0.475853242 1.41409556,0.475853242 C0.862730375,0.475853242 0.415290102,0.923293515 0.415290102,1.4746587 L0.415290102,9.44872014 C0.415290102,10.2724403 0.723993174,10.9753413 1.34088737,11.559471 C1.95778157,12.1430887 2.69498294,12.4272184 3.55249147,12.412372 L4.65778157,12.412372 L4.65778157,14.8139078 C4.65778157,15.0831911 4.54771331,15.319198 4.32604096,15.5209044 C4.1043686,15.7231229 3.84122867,15.8239761 3.53610922,15.8239761 C3.23047782,15.8239761 2.96682594,15.7231229 2.74515358,15.5209044 C2.52399317,15.319198 2.41341297,15.0831911 2.41341297,14.8139078 L2.41290102,14.634727 C2.41290102,14.0833618 1.9659727,13.6359215 1.41409556,13.6359215 C0.862730375,13.6359215 0.415290102,14.0833618 0.415290102,14.634727 L0.415290102,14.8139078 C0.415290102,15.637116 0.71887372,16.341041 1.32501706,16.9241468 C1.93116041,17.5082765 2.66784983,17.7995734 3.53610922,17.7995734 C4.38849829,17.7995734 5.12211604,17.5082765 5.73593857,16.9241468 C6.34924915,16.341041 6.65590444,15.637116 6.65590444,14.8139078 L6.65590444,1.4746587 C6.65590444,0.923293515 6.20897611,0.475853242 5.65709898,0.475853242" id="Fill-13" fill="#FFFFFF" mask="url(#mask-2)"></path>
                </g>
                <path d="M20.5412969,14.0258703 C20.1122867,14.0258703 19.7349829,14.1671672 19.4196246,14.4472014 C19.0909556,14.7390102 18.9179181,15.1193857 18.9179181,15.5489078 L18.9179181,21.6538567 C18.9179181,22.0838908 19.0914676,22.4647782 19.4196246,22.7560751 C19.7334471,23.0350853 20.1112628,23.1763823 20.5412969,23.1763823 C20.9866894,23.1763823 21.3721843,23.0345734 21.6860068,22.7550512 C22.0131399,22.465802 22.1866894,22.0849147 22.1866894,21.6538567 L22.1866894,15.5489078 C22.1866894,15.1188737 22.0131399,14.7379863 21.6849829,14.4472014 C21.3706485,14.1676792 20.9856655,14.0258703 20.5412969,14.0258703 M18.431058,29.2900341 C18.1627986,29.2900341 17.944198,29.0719454 17.944198,28.8031741 L17.944198,15.5263823 C17.944198,14.8577816 18.1930034,14.2966894 18.7054608,13.8103413 C19.2261092,13.3147782 19.8296928,13.0746758 20.5525597,13.0746758 C21.2897611,13.0746758 21.8964164,13.3142662 22.4078498,13.8072696 C22.9146758,14.2946416 23.1604096,14.8644369 23.1604096,15.5489078 L23.1604096,21.6538567 C23.1604096,22.3373038 22.9136519,22.907099 22.4047782,23.3949829 C21.8892491,23.8879863 21.2774744,24.1275768 20.5361775,24.1275768 C20.2233788,24.1275768 19.9110922,24.0707509 19.6090444,23.9576109 L18.9179181,23.7006143 L18.9179181,28.8031741 C18.9179181,29.0719454 18.6993174,29.2900341 18.431058,29.2900341" id="Fill-16" fill="#FFFFFF"></path>
                <path d="M53.7292833,14.0258703 C53.2997611,14.0258703 52.9224573,14.1676792 52.6076109,14.4472014 C52.2799659,14.7379863 52.1064164,15.1188737 52.1064164,15.5489078 L52.1064164,21.6538567 C52.1064164,22.0849147 52.2799659,22.465802 52.6086348,22.7560751 C52.9209215,23.0345734 53.2987372,23.1763823 53.7292833,23.1763823 C54.1741638,23.1763823 54.5596587,23.0350853 54.8739932,22.7555631 C55.2016382,22.4647782 55.3751877,22.0838908 55.3751877,21.6538567 L55.3751877,15.5489078 C55.3751877,15.1193857 55.2021502,14.7390102 54.8739932,14.4472014 C54.5581229,14.1671672 54.1731399,14.0258703 53.7292833,14.0258703 M51.6190444,29.2900341 C51.350785,29.2900341 51.1326962,29.0719454 51.1326962,28.8031741 L51.1326962,15.5263823 C51.1326962,14.8582935 51.3815017,14.2966894 51.8934471,13.8098294 C52.4140956,13.3147782 53.0181911,13.0746758 53.741058,13.0746758 C54.4782594,13.0746758 55.0849147,13.3142662 55.5963481,13.8072696 C56.1031741,14.2946416 56.3489078,14.8644369 56.3489078,15.5489078 L56.3489078,21.6538567 C56.3489078,22.3373038 56.1021502,22.907099 55.5932765,23.3949829 C55.0777474,23.8879863 54.4659727,24.1275768 53.7246758,24.1275768 C53.4118771,24.1275768 53.0995904,24.0707509 52.7975427,23.9576109 L52.1064164,23.7006143 L52.1059044,28.8031741 C52.1059044,29.0719454 51.8873038,29.2900341 51.6190444,29.2900341" id="Fill-18" fill="#FFFFFF"></path>
                <path d="M72.7957167,24.0943003 C72.520802,24.0943003 72.2970819,23.8705802 72.2970819,23.5956655 L72.2986177,15.5709215 C72.2986177,15.1460068 72.127628,14.7630717 71.8045904,14.4651195 C71.489744,14.1738225 71.1098805,14.0258703 70.6757509,14.0258703 C70.2262628,14.0258703 69.8382082,14.1738225 69.5223379,14.4656314 C69.2008362,14.7625597 69.0303584,15.1454949 69.0303584,15.5709215 L69.0298464,23.5956655 C69.0298464,23.8644369 68.8112457,24.0830375 68.5424744,24.0830375 C68.274215,24.0830375 68.0561263,23.8644369 68.0561263,23.5956655 L68.0561263,16.0608532 L68.077628,15.5489078 C68.077628,14.8664846 68.3233618,14.3012969 68.8281399,13.8210922 C69.3400853,13.3337201 69.9482765,13.0977133 70.6865017,13.0977133 C71.4114164,13.0977133 72.0165358,13.334744 72.5361604,13.8236519 C73.0051024,14.2639249 73.252884,14.7758703 73.289744,15.3845734 L73.2728498,15.5724573 L73.2948635,23.5972014 C73.2948635,23.8705802 73.0706314,24.0943003 72.7957167,24.0943003" id="Fill-20" fill="#FFFFFF"></path>
                <path d="M61.9558874,24.0603072 C61.219198,24.0603072 60.6120307,23.8207167 60.0995734,23.3282253 C59.5937713,22.8408532 59.3475256,22.271058 59.3475256,21.586587 L59.3475256,13.477372 C59.3475256,13.2091126 59.5661263,12.9910239 59.8343857,12.9910239 C60.103157,12.9910239 60.3217577,13.2091126 60.3217577,13.477372 L60.3222696,21.586587 C60.3222696,22.0125256 60.4927474,22.3944369 60.815273,22.6923891 C61.1321672,22.9831741 61.519198,23.1311263 61.9671502,23.1311263 C62.4007679,23.1311263 62.7801195,22.9831741 63.0965017,22.6923891 C63.4195392,22.3944369 63.5900171,22.0125256 63.5900171,21.586587 L63.5900171,13.477372 C63.5900171,13.2091126 63.8086177,12.9910239 64.0773891,12.9910239 C64.3456485,12.9910239 64.5642491,13.2091126 64.5642491,13.477372 L64.5647611,21.6091126 C64.5647611,22.2910239 64.3159556,22.8551877 63.8050341,23.3348805 C63.2854096,23.8227645 62.6802901,24.0603072 61.9558874,24.0603072" id="Fill-22" fill="#FFFFFF"></path>
                <path d="M37.9829693,14.0488567 C37.5345051,14.0488567 37.1469625,14.1962969 36.8316041,14.4870819 C36.5085666,14.7845222 36.3375768,15.1674573 36.3375768,15.5933959 L36.3375768,17.8341809 L39.6058362,17.8341809 L39.6058362,15.5933959 C39.6058362,15.1679693 39.4353584,14.7850341 39.1123208,14.4870819 C38.7959386,14.1962969 38.416587,14.0488567 37.9829693,14.0488567 M37.9937201,24.0604608 C37.2570307,24.0604608 36.6498635,23.8208703 36.1379181,23.3283788 C35.632116,22.8410068 35.3863823,22.2712116 35.3863823,21.5867406 L35.3863823,15.5708703 C35.3863823,14.8884471 35.6316041,14.3232594 36.1363823,13.8435666 C36.6483276,13.3561945 37.2560068,13.1201877 37.9937201,13.1201877 C38.7186348,13.1201877 39.3232423,13.3572184 39.8438908,13.8461263 C40.3543003,14.3253072 40.6025939,14.8899829 40.6025939,15.5708703 L40.6025939,18.7853754 L36.3375768,18.7853754 L36.3375768,21.5867406 C36.3375768,22.0126792 36.5085666,22.3951024 36.832116,22.6925427 C37.1469625,22.9833276 37.5345051,23.1307679 37.9829693,23.1307679 C38.416587,23.1307679 38.7959386,22.9833276 39.1118089,22.6925427 C39.4353584,22.3945904 39.6058362,22.0121672 39.6058362,21.5867406 L39.6058362,21.1828157 C39.6058362,20.9073891 39.8290444,20.6841809 40.104471,20.6841809 C40.3793857,20.6841809 40.6025939,20.9073891 40.6025939,21.1828157 L40.6025939,21.5867406 C40.6025939,22.2696758 40.3537884,22.838959 39.8413311,23.3263311 C39.3211945,23.8203584 38.717099,24.0604608 37.9937201,24.0604608" id="Fill-24" fill="#FFFFFF"></path>
                <path d="M31.3836348,24.0603072 C31.1087201,24.0603072 30.885,23.836587 30.885,23.5621843 L30.885,15.5031399 C30.885,15.0787372 30.7201536,14.7009215 30.4083788,14.4101365 C30.0991638,14.1254949 29.7177645,13.9816382 29.272884,13.9816382 C28.8454096,13.9816382 28.4706655,14.1234471 28.1573549,14.4039932 C27.8332935,14.6942662 27.6617918,15.0746416 27.6617918,15.5031399 L27.6612799,23.5621843 C27.6612799,23.836587 27.4380717,24.0603072 27.1636689,24.0603072 C26.8887543,24.0603072 26.6650341,23.836587 26.6650341,23.5621843 L26.6650341,8.36508532 C26.6650341,8.09068259 26.8887543,7.86696246 27.1636689,7.86696246 C27.4380717,7.86696246 27.6612799,8.09068259 27.6612799,8.36508532 L27.6617918,13.458942 L28.353942,13.1993857 C28.65343,13.0867577 28.9626451,13.0299317 29.272884,13.0299317 C30.0100853,13.0299317 30.6177645,13.2695222 31.1297099,13.7625256 C31.6355119,14.2498976 31.8817577,14.8125256 31.8817577,15.4811263 L31.8817577,23.5621843 C31.8817577,23.836587 31.6580375,24.0603072 31.3836348,24.0603072" id="Fill-26" fill="#FFFFFF"></path>
                <path d="M44.6052389,24.0603072 C44.3308362,24.0603072 44.107116,23.836587 44.107116,23.5621843 L44.107116,15.5487031 C44.107116,14.8662799 44.3554096,14.3016041 44.8658191,13.8234471 C45.3854437,13.3350512 45.9905631,13.0975085 46.7149659,13.0975085 C47.4209386,13.0975085 48.0086519,13.3145734 48.5118942,13.7604778 C48.692099,13.9514334 48.6890273,14.2545051 48.5016553,14.4408532 C48.410529,14.5319795 48.288686,14.5816382 48.1591638,14.5816382 C48.0301536,14.5816382 47.9083106,14.5319795 47.8161604,14.4413652 L47.3989249,14.030273 L47.3200853,14.1357338 C47.1327133,14.0630375 46.9304949,14.0256655 46.7149659,14.0256655 C46.282372,14.0256655 45.9045563,14.1741297 45.5907338,14.4679863 C45.2723038,14.7654266 45.1033618,15.1468259 45.1033618,15.5707167 L45.1038737,23.5621843 C45.1038737,23.836587 44.8801536,24.0603072 44.6052389,24.0603072" id="Fill-28" fill="#FFFFFF"></path>
                <g id="Group-32" transform="translate(0.000000, 7.395461)">
                    <mask id="mask-4" fill="white">
                        <use xlink:href="#path-3"></use>
                    </mask>
                    <g id="Clip-31"></g>
                    <path d="M2.60872014,16.6648464 C1.87151877,16.6648464 1.26435154,16.425256 0.752406143,15.9327645 C0.24609215,15.4453925 -0.000153583618,14.8755973 -0.000153583618,14.1911263 L-0.000153583618,2.92269625 C-0.000153583618,2.25358362 0.24609215,1.69146758 0.752406143,1.20460751 C1.26435154,0.71109215 1.87151877,0.471501706 2.60872014,0.471501706 C3.33107509,0.471501706 3.93517065,0.712116041 4.45479522,1.20665529 C4.96725256,1.6940273 5.21656997,2.26228669 5.21656997,2.94522184 L5.21656997,4.58395904 C5.21656997,4.85273038 4.99796928,5.07133106 4.7297099,5.07133106 C4.46093857,5.07133106 4.24233788,4.85273038 4.24233788,4.58395904 L4.24233788,2.94522184 C4.24233788,2.51672355 4.06981229,2.13583618 3.74216724,1.84453925 C3.42680887,1.56501706 3.04899317,1.42372014 2.61947099,1.42372014 C2.1740785,1.42372014 1.78909556,1.56501706 1.47476109,1.8440273 C1.14711604,2.13532423 0.974078498,2.51569966 0.974078498,2.94522184 L0.974078498,14.1911263 C0.974078498,14.6170648 1.14506826,14.9994881 1.4681058,15.2969283 C1.78346416,15.5877133 2.17100683,15.7356655 2.61947099,15.7356655 C3.05257679,15.7356655 3.43192833,15.5877133 3.74831058,15.2969283 C4.07134812,14.9989761 4.24233788,14.6165529 4.24233788,14.1911263 L4.24233788,12.5303754 C4.24233788,12.2616041 4.46093857,12.0440273 4.7297099,12.0440273 C4.99796928,12.0440273 5.21656997,12.2616041 5.21656997,12.5303754 L5.21656997,14.1911263 C5.21656997,14.8740614 4.96725256,15.4433447 4.45479522,15.9307167 C3.93517065,16.424744 3.33107509,16.6648464 2.60872014,16.6648464" id="Fill-30" fill="#FFFFFF" mask="url(#mask-4)"></path>
                </g>
                <path d="M11.3233106,29.2902389 C10.5855973,29.2902389 9.97791809,29.0506485 9.46750853,28.558157 C8.96068259,28.070785 8.71443686,27.5015017 8.71443686,26.8170307 L8.71443686,26.6378498 C8.71443686,26.3695904 8.9325256,26.1509898 9.20078498,26.1509898 C9.46955631,26.1509898 9.688157,26.3695904 9.688157,26.6378498 L9.68866894,26.8185666 C9.68866894,27.2296587 9.86119454,27.6044027 10.1873038,27.9023549 C10.5047099,28.1916041 10.8871331,28.3390444 11.3233106,28.3390444 C11.7589761,28.3390444 12.1408874,28.1916041 12.4582935,27.9023549 C12.7844027,27.6044027 12.9569283,27.2296587 12.9569283,26.8170307 L12.9569283,23.9035495 L11.2772355,23.9040614 C10.5753584,23.9040614 9.98764505,23.6701024 9.47979522,23.1904096 C8.9652901,22.7030375 8.71443686,22.1342662 8.71443686,21.451843 L8.71443686,13.4772696 C8.71443686,13.2090102 8.9325256,12.9909215 9.20078498,12.9909215 C9.46955631,12.9909215 9.688157,13.2090102 9.688157,13.4772696 L9.68866894,21.4298294 C9.68866894,21.8562799 9.8596587,22.2387031 10.1826962,22.5361433 C10.4980546,22.8269283 10.8779181,22.9743686 11.3125597,22.9743686 L12.9569283,22.9743686 L12.9569283,13.4772696 C12.9569283,13.2090102 13.175529,12.9909215 13.4443003,12.9909215 C13.7125597,12.9909215 13.9311604,13.2090102 13.9311604,13.4772696 L13.9311604,26.8170307 C13.9311604,27.4999659 13.681843,28.0687372 13.1698976,28.5555973 C12.6512969,29.0501365 12.0472014,29.2902389 11.3233106,29.2902389" id="Fill-33" fill="#FFFFFF"></path>
                <path d="M81.7677645,24.0643003 C81.6367065,24.0643003 81.5153754,23.992628 81.4513823,23.8774403 L78.9536007,19.3308532 L77.7157167,21.7323891 L77.7157167,23.5958703 C77.7157167,23.851843 77.5073549,24.0602048 77.2508703,24.0602048 C76.9948976,24.0602048 76.7865358,23.851843 76.7865358,23.5958703 L76.8070137,8.32146758 C76.8070137,8.07061433 77.0107679,7.86686007 77.2611092,7.86686007 C77.5119625,7.86686007 77.7157167,8.07061433 77.7157167,8.32095563 L77.7157167,17.8835836 L77.7157167,19.8719795 L81.3761263,13.1204437 C81.4370478,13.0124232 81.5599147,12.9402389 81.6919966,12.9402389 C81.7493345,12.9402389 81.8051365,12.9545734 81.8578669,12.9817065 C81.9443857,13.0262457 82.0083788,13.1025256 82.0375597,13.1962116 C82.0672526,13.2888737 82.0585495,13.3881911 82.0134983,13.474198 L79.4235666,18.4677133 L82.0897782,23.5410922 C82.1404608,23.6398976 82.1409727,23.7612287 82.0887543,23.8646416 L82.0805631,23.8794881 C82.0467747,23.9414334 81.9945563,23.9916041 81.9310751,24.0243686 C81.8798805,24.0509898 81.8245904,24.0643003 81.7677645,24.0643003" id="Fill-35" fill="#FFFFFF"></path>
                <path d="M110.030887,13.3938737 C110.030887,13.3938737 110.029863,13.3923379 110.029352,13.3918259 C110.028328,13.391314 110.028328,13.3902901 110.027304,13.3897782 L110.026792,13.3902901 C109.42884,12.8537713 108.711604,12.5855119 107.876109,12.5855119 C107.023208,12.5855119 106.290102,12.8737372 105.67628,13.4496758 C105.062457,14.0261263 104.756314,14.7259556 104.756314,15.5486519 L104.756314,23.5621331 C104.756314,24.1201536 105.208362,24.5727133 105.766382,24.5727133 C106.324403,24.5727133 106.776451,24.1201536 106.776451,23.5621331 L106.775939,15.5706655 C106.775939,15.2865358 106.884983,15.0438737 107.101536,14.8416553 C107.318601,14.6389249 107.576109,14.5380717 107.876109,14.5380717 C108.160239,14.5380717 108.406997,14.6281741 108.616382,14.8078669 L108.61843,14.8063311 C109.008532,15.1902901 109.635154,15.1902901 110.024232,14.8032594 C110.413823,14.4152048 110.416382,13.7855119 110.030887,13.3938737" id="Fill-37" fill="#FFFFFF"></path>
                <rect id="Rectangle-2" fill="#FFFFFF" x="88.3333333" y="0" width="0.833333333" height="31.6666667"></rect>
            </g>
        </g>
    </g>
</svg>