<?xml version="1.0" encoding="UTF-8" standalone="no"?>
<svg width="22px" height="23px" viewBox="0 0 22 23" version="1.1" xmlns="http://www.w3.org/2000/svg" xmlns:xlink="http://www.w3.org/1999/xlink">
    <!-- Generator: sketchtool 39.1 (31720) - http://www.bohemiancoding.com/sketch -->
    <title>2BDBCE55-B5C2-4716-9BCC-706D93ADB081</title>
    <desc>Created with sketchtool.</desc>
    <defs></defs>
    <g id="assets" stroke="none" stroke-width="1" fill="none" fill-rule="evenodd" fill-opacity="0.8">
        <g transform="translate(-231.000000, -169.000000)" id="icon_settings" fill="#FFFFFF">
            <path d="M249.853154,181.796949 C249.853154,181.466949 249.963154,181.136949 249.963154,180.696949 C249.963154,180.256949 249.963154,179.926949 249.853154,179.596949 L252.163154,177.726949 C252.383154,177.506949 252.383154,177.286949 252.273154,177.066949 L250.073154,173.216949 C249.963154,173.106949 249.743154,172.996949 249.413154,173.106949 L246.663154,174.206949 C246.113154,173.766949 245.453154,173.436949 244.793154,173.106949 L244.353154,170.246949 C244.463154,169.916949 244.133154,169.696949 243.913154,169.696949 L239.513154,169.696949 C239.293154,169.696949 238.963154,169.916949 238.963154,170.136949 L238.523154,173.106949 C237.863154,173.326949 237.313154,173.766949 236.653154,174.206949 L234.013154,173.106949 C233.683154,172.996949 233.463154,173.106949 233.243154,173.326949 L231.043154,177.176949 C230.933154,177.286949 231.043154,177.616949 231.263154,177.836949 L233.573154,179.596949 C233.573154,179.926949 233.463154,180.256949 233.463154,180.696949 C233.463154,181.136949 233.463154,181.466949 233.573154,181.796949 L231.263154,183.666949 C231.043154,183.886949 231.043154,184.106949 231.153154,184.326949 L233.353154,188.176949 C233.463154,188.286949 233.683154,188.396949 234.013154,188.286949 L236.763154,187.186949 C237.313154,187.626949 237.973154,187.956949 238.633154,188.286949 L239.073154,191.146949 C239.073154,191.366949 239.293154,191.586949 239.623154,191.586949 L244.023154,191.586949 C244.243154,191.586949 244.573154,191.366949 244.573154,191.146949 L245.013154,188.286949 C245.673154,187.956949 246.333154,187.626949 246.883154,187.186949 L249.633154,188.286949 C249.853154,188.396949 250.183154,188.286949 250.293154,188.066949 L252.493154,184.216949 C252.603154,183.996949 252.603154,183.666949 252.383154,183.556949 L249.853154,181.796949 L249.853154,181.796949 Z M241.713154,184.546949 C239.623154,184.546949 237.863154,182.786949 237.863154,180.696949 C237.863154,178.606949 239.623154,176.846949 241.713154,176.846949 C243.803154,176.846949 245.563154,178.606949 245.563154,180.696949 C245.563154,182.786949 243.803154,184.546949 241.713154,184.546949 L241.713154,184.546949 Z"></path>
        </g>
    </g>
</svg>