<?xml version="1.0" encoding="UTF-8" standalone="no"?>
<svg width="22px" height="30px" viewBox="0 0 22 30" version="1.1" xmlns="http://www.w3.org/2000/svg" xmlns:xlink="http://www.w3.org/1999/xlink">
    <!-- Generator: sketchtool 40.2 (33826) - http://www.bohemiancoding.com/sketch -->
    <title>531D0D09-A1B7-4DBB-8BF9-91D7AD62A8E1</title>
    <desc>Created with sketchtool.</desc>
    <defs></defs>
    <g id="desktop" stroke="none" stroke-width="1" fill="none" fill-rule="evenodd">
        <g id="desktop-assets" transform="translate(-113.000000, -218.000000)" fill="#FFFFFF">
            <g id="icon_account_big" transform="translate(113.000000, 218.000000)">
                <path d="M11.2121862,9.94475776 C11.3329966,9.94475776 11.4534276,9.95016149 11.5706345,9.96096894 C12.2727379,10.0250683 12.9518931,10.296559 13.6467897,10.7910932 C14.482031,11.3855031 15.2184621,12.1772422 15.9645655,13.2829565 C16.0324621,13.3839503 16.0982724,13.4862484 16.1633241,13.5892919 L16.8075828,13.3082981 C17.7018069,12.9179255 18.5962207,12.5273665 19.4912034,12.1386708 C19.4648414,11.9873665 19.4396172,11.8364348 19.4142034,11.6853168 C19.3453586,11.2733292 19.2740483,10.8473665 19.1807379,10.4391056 C18.7282207,8.4628323 17.985531,6.78786335 16.9098069,5.31804969 C15.8744793,3.9033913 14.6686517,2.88096894 13.2231,2.19245963 C11.9984966,1.60941615 10.6932897,1.31370186 9.34332414,1.31370186 C8.56365172,1.31370186 7.74870345,1.41208696 6.92123793,1.60606211 C5.40437586,1.96140373 3.91615172,2.62252174 2.37937586,3.62481988 L2.4596,3.74631056 C3.98442759,6.05593789 5.50925517,8.36556522 7.03787586,10.6725839 C7.30054828,10.682646 7.55753103,10.6878634 7.80313448,10.6878634 C7.8698931,10.6878634 7.93665172,10.6874907 8.00303103,10.6867453 C8.0713069,10.686 8.15551379,10.6701615 8.2603931,10.6381118 C8.4528931,10.5790435 8.64482414,10.5168075 8.83675517,10.4543851 C9.16618621,10.3474286 9.50699655,10.2367453 9.85141034,10.1433913 C10.3445138,10.0097888 10.7894448,9.94475776 11.2121862,9.94475776 L11.2121862,9.94475776 Z M16.7013759,14.5981118 L18.6385138,13.743205 C18.1865655,13.9403478 16.6981517,14.5910311 16.6981517,14.5910311 L16.7013759,14.5981118 Z M16.5299276,18.1131429 L16.5354276,18.1602857 L16.5724103,18.5543851 C16.6992897,18.4938261 16.8257897,18.4328944 16.9524793,18.3719627 C17.4051862,18.1539503 17.8736345,17.9286708 18.3470138,17.7253789 C18.8167897,17.5239503 19.1367379,17.2056894 19.3303759,16.7404099 C19.3303759,16.7404099 16.5407379,18.0540745 16.5223414,18.062646 C16.5248069,18.0794161 16.5274621,18.096559 16.5299276,18.1131429 L16.5299276,18.1131429 Z M16.5513586,19.8311553 C16.5312552,19.9347578 16.5132379,20.0387329 16.495031,20.1427081 C16.4813759,20.2209689 16.4679103,20.2992298 16.4534966,20.3773043 C16.7476517,20.2349441 17.0382034,20.0946335 17.3300828,19.9567453 C17.7219103,19.7717143 17.991031,19.4916522 18.1696862,19.0662484 C17.6295483,19.3198509 17.0897897,19.5740124 16.5513586,19.8311553 L16.5513586,19.8311553 Z M14.081669,16.4683602 C13.8698241,16.4683602 13.6500138,16.570472 13.4102897,16.7806584 C13.1792897,16.9828323 12.9890655,17.2455652 12.8288069,17.5841366 C12.4011345,18.4880497 12.2712207,19.4666832 12.4430483,20.4924596 C12.5454621,21.1051304 12.7415655,21.5568075 13.0598069,21.9141988 C13.1997724,22.0712795 13.4286862,22.2585466 13.7236,22.2585466 C13.9200828,22.2585466 14.1290828,22.174323 14.328031,22.0150062 C14.5829276,21.8109689 14.7858586,21.5506584 14.9482034,21.2197267 C15.4648241,20.167118 15.5810828,19.0474286 15.2937552,17.8915901 C15.2412207,17.6791677 15.2550655,17.3905342 15.6195828,17.2205963 C16.2511345,16.926 16.8819276,16.6291677 17.5127207,16.3321491 C18.1806862,16.0178012 18.849031,15.7032671 19.5181345,15.3911553 C19.8923241,15.2169317 20.159169,14.9545714 20.3346,14.589354 C20.4002207,14.4522112 20.4535138,14.3100373 20.4941,14.1611553 L19.1223241,14.7663727 C17.7588931,15.3684224 16.3954621,15.9702857 15.0310828,16.5700994 C14.9582552,16.6021491 14.8467379,16.6399752 14.7274448,16.6399752 C14.6430483,16.6399752 14.5652897,16.6213416 14.4960655,16.5846335 C14.3490828,16.5063727 14.213669,16.4683602 14.081669,16.4683602 L14.081669,16.4683602 Z M1.52953103,26.5092298 C1.73606552,26.8953168 1.94184138,27.2819627 2.14477241,27.669913 C2.24054828,27.8525217 2.3881,27.963205 2.63787586,28.0394161 C3.63944483,28.3451925 4.69335862,28.5896646 5.77003103,28.7666832 C5.92061724,28.7914658 6.03327241,28.802646 6.13625517,28.802646 C6.27223793,28.802646 6.38792759,28.7828944 6.50001379,28.7405963 C8.60442759,27.9468075 10.7410828,26.9735776 12.8508069,25.8477391 C13.1669621,25.6791056 13.3922724,25.4616522 13.5398241,25.1828944 C13.6907897,24.8976149 13.833031,24.5964969 13.970531,24.3056273 C14.0414621,24.1550683 14.1125828,24.0046957 14.1854103,23.854882 L14.1939448,23.8373665 C14.2280828,23.7656273 14.2798586,23.6573665 14.3809448,23.5696025 C14.582169,23.3946335 14.7684103,23.2014037 14.9404276,22.988236 C14.916531,23.0050062 14.8924448,23.0215901 14.8679793,23.0378012 C14.5116172,23.2738882 14.1169448,23.3987329 13.7268241,23.3987329 C13.2982034,23.3987329 12.8792552,23.2502236 12.5153069,22.9690435 C12.1062207,22.653205 11.7997379,22.2268696 11.5784103,21.6652547 C11.1569966,20.5958758 11.095169,19.4200994 11.3942552,18.1703478 C11.6064793,17.2841366 11.9694793,16.593764 12.5043069,16.059354 C12.9890655,15.5750683 13.5144103,15.3296646 14.0653586,15.3296646 C14.2821345,15.3296646 14.5049793,15.3678634 14.7289621,15.4435155 C15.0274793,15.2998509 15.3258069,15.1545093 15.6281172,15.007118 C15.175031,14.0862484 14.5785655,13.236559 13.8535138,12.4796646 C13.4438586,12.0522112 12.9828069,11.7007826 12.4832552,11.435441 C12.0428759,11.2015901 11.6188069,11.0879255 11.1860138,11.0879255 C11.0638759,11.0879255 10.9387034,11.0972422 10.8141,11.1156894 C10.4402897,11.1710311 10.0562379,11.256 9.64601379,11.3750683 C9.66497931,11.375441 9.68375517,11.3758137 9.70272069,11.3763727 C10.0048414,11.3827081 10.253669,11.4695404 10.4859966,11.649354 C11.3557552,12.3231429 12.0648759,13.2181118 12.6535655,14.3856894 C12.6812552,14.4408447 12.7064793,14.4967453 12.7328414,14.5552547 L12.9128241,14.9458137 C12.9128241,14.9458137 12.491031,15.182087 12.4572724,15.2001615 C12.326031,15.2698509 12.1957379,15.3406584 12.0652552,15.4116522 C11.7692034,15.5724596 11.4627207,15.7386708 11.1507379,15.8905342 C10.5419448,16.1866211 10.0594621,16.6502236 9.71694483,17.2686708 C8.83353103,18.8644472 8.65013448,20.5658758 9.17225517,22.3256273 C9.4061,23.1134534 9.80456552,23.6927702 10.3909793,24.096559 C10.450531,24.1369938 10.4873241,24.1841366 10.5068586,24.2096646 L10.7545483,24.4940124 L10.4484448,24.7567453 C10.4169621,24.7845093 10.3887034,24.8076149 10.3583586,24.8273665 C10.1798931,24.9440124 10.0012379,25.0621491 9.82277241,25.1806584 C9.41103103,25.4536398 8.98525517,25.7361242 8.55322069,25.9997888 C7.61803103,26.5705342 6.80592759,26.9338882 5.99723793,27.1433292 C5.82218621,27.1886087 5.63366897,27.2303478 5.43946207,27.2305342 C5.36701379,27.2305342 5.29684138,27.2243851 5.23122069,27.2124596 C4.43011724,27.0674907 3.61877241,26.9109689 2.83416897,26.7594783 C2.39928966,26.6756273 1.9646,26.5915901 1.52953103,26.5092298 L1.52953103,26.5092298 Z M6.07025517,29.9191677 C5.86542759,29.9191677 5.65718621,29.8990435 5.4333931,29.8580497 C4.20006552,29.6307205 3.19432414,29.3914658 2.26728966,29.105441 C1.74535862,28.9438882 1.38235862,28.660472 1.15761724,28.2386087 C1.15761724,28.2386087 0.356703448,26.738236 0.172548276,26.3918385 C0.0278413793,26.1196025 0.00925517241,25.8259379 0.116410345,25.5188571 C0.228875862,25.1964969 0.325031034,24.8791677 0.438824138,24.4977391 C0.443565517,24.4822733 0.444134483,24.4623354 0.442427586,24.4545093 C0.131772414,22.9200373 -0.0127448276,21.5202857 0.000910344828,20.1749441 C0.0191172414,18.3605963 0.311565517,16.8205342 0.894565517,15.4671801 C1.49596207,14.0709689 2.40820345,12.9373043 3.60644483,12.098236 C3.62427241,12.0857516 3.63053103,12.0790435 3.63053103,12.0790435 C4.11927241,11.3681739 4.73982414,10.7987329 5.47568621,10.3861863 L0.857582759,3.39134161 L1.05463448,3.17873292 C1.07094483,3.15935404 1.10375517,3.1202236 1.15515172,3.0844472 C2.81691034,1.91500621 4.43884138,1.11804969 6.11178966,0.648857143 C7.20647931,0.341962733 8.28713448,0.186186335 9.3236,0.186186335 C10.3477379,0.186186335 11.3620138,0.338049689 12.3379793,0.637304348 C14.2388931,1.22034783 15.8983759,2.33090683 17.2703414,3.93804969 C18.5340138,5.4181118 19.4494793,7.16798758 20.0685138,9.2875528 C20.3440828,10.2317143 20.5466345,11.2451925 20.6873586,12.3861242 C20.7175138,12.6317143 20.6780655,12.819354 20.488031,12.9453168 L21.8273759,12.3723354 L21.8273759,12.9482981 C21.8273759,13.0112795 21.7867897,13.0720248 21.7873586,13.1310932 C21.7888759,13.2658137 21.7693414,13.3928944 21.7638414,13.5199752 C21.7314103,14.2595404 21.5400483,14.8709068 21.1999966,15.3887329 C21.0723586,15.5830807 20.9033759,15.7740745 20.7084103,15.9568696 C20.676169,15.9866832 20.6714276,15.9935776 20.6682034,16.0334534 C20.6304621,16.5022733 20.5087034,16.9487329 20.3088069,17.3597888 C20.1201,17.7481118 19.8557207,18.0801615 19.5238241,18.3471801 C19.4379103,19.0686708 19.2357379,19.6286087 18.8905655,20.1056273 C18.6324448,20.4628323 18.3014966,20.7412174 17.9075828,20.9329565 L17.6543931,21.0546335 C17.4626517,21.1463106 17.2646517,21.2409689 17.0761345,21.3395404 C16.7671862,22.2740124 16.3632207,23.0407826 15.8414793,23.6830807 C15.7464621,23.8000994 15.6455655,23.9055652 15.5478931,24.007677 C15.4769621,24.0818385 15.4058414,24.1558137 15.3390828,24.2333292 C15.2698586,24.3138261 15.2089793,24.4017764 15.1634621,24.4880497 C15.0714793,24.663205 14.9821517,24.8398509 14.8930138,25.0166832 C14.7450828,25.3099752 14.592031,25.6133292 14.4253241,25.9077391 C14.2210655,26.2684845 13.9130655,26.5569317 13.4836862,26.7896646 C11.5207552,27.8536398 9.44023793,28.8121491 7.12322069,29.7203478 C6.78241034,29.8541366 6.4378069,29.9191677 6.07025517,29.9191677 L6.07025517,29.9191677 Z" id="Fill-1"></path>
                <path d="M11.9030431,14.6263602 C11.8525948,14.6561739 11.8049914,14.6869193 11.7549224,14.7135652 C11.3668879,14.9200248 10.9773362,15.1238758 10.5900603,15.3318261 C9.89440517,15.7054286 9.40111207,16.2726335 9.01857759,16.940087 C8.47825,17.8829441 8.20742241,18.9031304 8.13573276,19.978472 C8.06631897,21.020646 8.1994569,22.0330062 8.60323276,23.004 C8.81469828,23.5119503 9.10411207,23.9714534 9.50769828,24.3564224 C9.52818103,24.3759876 9.54581897,24.3985342 9.56952586,24.4248075 C9.55700862,24.441764 9.54942241,24.4605839 9.53557759,24.470087 C8.57914655,25.1157391 7.61000862,25.7397764 6.52840517,26.1720745 C6.46107759,26.1990932 6.39393966,26.2266708 6.32585345,26.2516398 C5.61407759,26.5126957 5.57121552,26.510646 4.65764655,26.3319503 C3.67352586,26.1394658 2.68807759,25.9536894 1.70206034,25.7703354 C1.59206034,25.7498385 1.53933621,25.7082857 1.50937069,25.5990932 C1.13138793,24.2293416 0.881422414,22.8385342 0.79437069,21.4210807 C0.69062931,19.7291553 0.792284483,18.0575404 1.33412931,16.4338137 C1.71628448,15.2889689 2.29606034,14.2523851 3.19388793,13.4205839 C3.78637069,12.8716398 4.42418103,12.3681615 5.19456034,12.0640621 C5.26018103,12.0381615 5.33509483,12.0197143 5.40507759,12.0215776 C6.84038793,12.0592174 8.27569828,12.0983478 9.71081897,12.144559 C9.80887069,12.1477267 9.92171552,12.1876025 9.99947414,12.2462981 C10.8204914,12.865118 11.4110776,13.6669193 11.8804741,14.5626335 C11.8890086,14.5788447 11.8929914,14.5974783 11.9030431,14.6263602" id="Fill-4"></path>
            </g>
        </g>
    </g>
</svg>