<?xml version="1.0" encoding="UTF-8" standalone="no"?>
<svg width="16px" height="25px" viewBox="0 0 16 25" version="1.1" xmlns="http://www.w3.org/2000/svg" xmlns:xlink="http://www.w3.org/1999/xlink">
    <!-- Generator: sketchtool 39.1 (31720) - http://www.bohemiancoding.com/sketch -->
    <title>B0D78A94-95A7-439C-90FF-9FF64E2B47EA</title>
    <desc>Created with sketchtool.</desc>
    <defs></defs>
    <g id="assets" stroke="none" stroke-width="1" fill="none" fill-rule="evenodd" fill-opacity="0.8">
        <g transform="translate(-192.000000, -169.000000)" id="icon_account" fill="#FFFFFF">
            <path d="M204.001376,184.68221 C205.870131,183.735323 207.36,182.082208 207.36,179.543103 C207.36,175.124825 203.921547,169.696949 199.68,169.696949 C195.438453,169.696949 192,175.124825 192,179.543103 C192,182.082208 193.48987,183.735323 195.358624,184.68221 C193.331138,185.95515 192,187.973657 192,189.740905 C192,192.581227 196.511209,193.696949 199.68,193.696949 C202.848791,193.69695 207.36,192.581227 207.36,189.740905 C207.36,187.973657 206.028862,185.95515 204.001376,184.68221 Z M205.105762,175.319651 C204.787595,175.866383 204.443544,176.417727 203.942003,176.8006 C203.717017,176.972481 203.465749,177.106055 203.209503,177.22539 C202.096516,177.744043 200.884973,178.005375 199.68,178.234416 C198.475027,178.005375 197.263484,177.744043 196.150497,177.22539 C195.894251,177.106055 195.642784,176.972481 195.417797,176.8006 C194.916456,176.417727 194.572405,175.866383 194.254238,175.319651 C194.094557,176.159203 194.096349,176.716163 194.094557,177.492538 C194.092566,178.334096 194.338061,179.17465 194.792215,179.880829 C194.870064,180.001968 194.954683,180.120299 195.062,180.215767 C195.259909,180.392261 195.519937,180.479105 195.775586,180.546493 C196.341437,180.695511 196.715353,180.792783 197.296336,180.862178 C197.450044,180.880429 197.815199,180.876016 197.967314,180.846333 C198.222166,180.796594 198.433415,180.659811 198.614798,180.472887 C199.076717,179.996954 199.379155,179.376616 199.565117,178.774931 L199.794883,178.774931 C199.980845,179.376616 200.283283,179.996954 200.745003,180.472887 C200.926585,180.659811 201.137834,180.81665 201.392686,180.866389 C201.544801,180.896073 201.909757,180.890457 202.063664,180.872206 C202.644448,180.802811 203.018364,180.700525 203.584414,180.551507 C203.840063,180.484119 204.100091,180.394869 204.298,180.218374 C204.405118,180.122706 204.489936,180.003171 204.567785,179.882032 C205.021939,179.175854 205.267434,178.334697 205.265443,177.49334 C205.263651,176.716765 205.265443,176.159203 205.105762,175.319651 Z"></path>
        </g>
    </g>
</svg>