<?xml version="1.0" encoding="UTF-8" standalone="no"?>
<svg width="22px" height="22px" viewBox="0 0 22 22" version="1.1" xmlns="http://www.w3.org/2000/svg" xmlns:xlink="http://www.w3.org/1999/xlink">
    <!-- Generator: sketchtool 40.1 (33804) - http://www.bohemiancoding.com/sketch -->
    <title>15C477C6-C24E-4F07-ADD2-1A9457CBB2F3</title>
    <desc>Created with sketchtool.</desc>
    <defs></defs>
    <g id="desktop" stroke="none" stroke-width="1" fill="none" fill-rule="evenodd">
        <g id="desktop-assets" transform="translate(-120.000000, -157.000000)" fill="#FFFFFF">
            <path d="M138.853154,169.1 C138.853154,168.77 138.963154,168.44 138.963154,168 C138.963154,167.56 138.963154,167.23 138.853154,166.9 L141.163154,165.03 C141.383154,164.81 141.383154,164.59 141.273154,164.37 L139.073154,160.52 C138.963154,160.41 138.743154,160.3 138.413154,160.41 L135.663154,161.51 C135.113154,161.07 134.453154,160.74 133.793154,160.41 L133.353154,157.55 C133.463154,157.22 133.133154,157 132.913154,157 L128.513154,157 C128.293154,157 127.963154,157.22 127.963154,157.44 L127.523154,160.41 C126.863154,160.63 126.313154,161.07 125.653154,161.51 L123.013154,160.41 C122.683154,160.3 122.463154,160.41 122.243154,160.63 L120.043154,164.48 C119.933154,164.59 120.043154,164.92 120.263154,165.14 L122.573154,166.9 C122.573154,167.23 122.463154,167.56 122.463154,168 C122.463154,168.44 122.463154,168.77 122.573154,169.1 L120.263154,170.97 C120.043154,171.19 120.043154,171.41 120.153154,171.63 L122.353154,175.48 C122.463154,175.59 122.683154,175.7 123.013154,175.59 L125.763154,174.49 C126.313154,174.93 126.973154,175.26 127.633154,175.59 L128.073154,178.45 C128.073154,178.67 128.293154,178.89 128.623154,178.89 L133.023154,178.89 C133.243154,178.89 133.573154,178.67 133.573154,178.45 L134.013154,175.59 C134.673154,175.26 135.333154,174.93 135.883154,174.49 L138.633154,175.59 C138.853154,175.7 139.183154,175.59 139.293154,175.37 L141.493154,171.52 C141.603154,171.3 141.603154,170.97 141.383154,170.86 L138.853154,169.1 L138.853154,169.1 Z M130.713154,171.85 C128.623154,171.85 126.863154,170.09 126.863154,168 C126.863154,165.91 128.623154,164.15 130.713154,164.15 C132.803154,164.15 134.563154,165.91 134.563154,168 C134.563154,170.09 132.803154,171.85 130.713154,171.85 L130.713154,171.85 Z" id="icon_settings"></path>
        </g>
    </g>
</svg>