<?xml version="1.0" encoding="UTF-8" standalone="no"?>
<svg width="22px" height="22px" viewBox="0 0 22 22" version="1.1" xmlns="http://www.w3.org/2000/svg" xmlns:xlink="http://www.w3.org/1999/xlink">
    <!-- Generator: sketchtool 40.1 (33804) - http://www.bohemiancoding.com/sketch -->
    <title>D9B32B9C-4E6A-4E6D-A61C-836FD59C7F43</title>
    <desc>Created with sketchtool.</desc>
    <defs></defs>
    <g id="desktop" stroke="none" stroke-width="1" fill="none" fill-rule="evenodd">
        <g id="desktop-assets" transform="translate(-73.000000, -157.000000)" fill="#FFFFFF">
            <path d="M82.9,173.5 L85.1,173.5 L85.1,166.9 L82.9,166.9 L82.9,173.5 L82.9,173.5 Z M84,157 C77.95,157 73,161.95 73,168 C73,174.05 77.95,179 84,179 C90.05,179 95,174.05 95,168 C95,161.95 90.05,157 84,157 L84,157 Z M84,176.8 C79.16,176.8 75.2,172.84 75.2,168 C75.2,163.16 79.16,159.2 84,159.2 C88.84,159.2 92.8,163.16 92.8,168 C92.8,172.84 88.84,176.8 84,176.8 L84,176.8 Z M82.9,164.7 L85.1,164.7 L85.1,162.5 L82.9,162.5 L82.9,164.7 L82.9,164.7 Z" id="icon_info"></path>
        </g>
    </g>
</svg>