<?xml version="1.0" encoding="UTF-8" standalone="no"?>
<!-- Generator: Adobe Illustrator 19.0.0, SVG Export Plug-In . SVG Version: 6.00 Build 0)  -->

<svg
   xmlns:dc="http://purl.org/dc/elements/1.1/"
   xmlns:cc="http://creativecommons.org/ns#"
   xmlns:rdf="http://www.w3.org/1999/02/22-rdf-syntax-ns#"
   xmlns:svg="http://www.w3.org/2000/svg"
   xmlns="http://www.w3.org/2000/svg"
   xmlns:sodipodi="http://sodipodi.sourceforge.net/DTD/sodipodi-0.dtd"
   xmlns:inkscape="http://www.inkscape.org/namespaces/inkscape"
   version="1.1"
   id="svg3898"
   x="0px"
   y="0px"
   viewBox="135 90 499.16198 56.432997"
   width="499.16199"
   height="56.432999"
   xml:space="preserve"
   sodipodi:docname="logo_text.svg"
   inkscape:version="0.92.0 r"><metadata
     id="metadata3904"><rdf:RDF><cc:Work
         rdf:about=""><dc:format>image/svg+xml</dc:format><dc:type
           rdf:resource="http://purl.org/dc/dcmitype/StillImage" /><dc:title></dc:title></cc:Work></rdf:RDF></metadata><defs
     id="defs3902" /><sodipodi:namedview
     pagecolor="#ffffff"
     bordercolor="#666666"
     borderopacity="1"
     objecttolerance="10"
     gridtolerance="10"
     guidetolerance="10"
     inkscape:pageopacity="0"
     inkscape:pageshadow="2"
     inkscape:window-width="954"
     inkscape:window-height="588"
     id="namedview3900"
     showgrid="false"
     fit-margin-top="1"
     fit-margin-left="1"
     fit-margin-right="1"
     fit-margin-bottom="1"
     inkscape:zoom="1.6157175"
     inkscape:cx="21.899639"
     inkscape:cy="50.025797"
     inkscape:window-x="143"
     inkscape:window-y="510"
     inkscape:window-maximized="0"
     inkscape:current-layer="svg3898" /><g
     id="logo"
     transform="translate(-125.316,-34.16)"><g
       id="cypherpunk"><path
         id="XMLID_129_"
         style="fill:#8dfffc"
         d="m 266.14,135.861 v 25.793 h 13.857 v 4.33 h -18.681 v -34.638 h 19.174 v 9.896 h -4.578 v -5.38 h -9.772 z"
         inkscape:connector-curvature="0" /><path
         id="XMLID_127_"
         style="fill:#8dfffc"
         d="m 309.561,177.118 h -19.174 v -4.33 h 14.351 v -6.804 H 290.51 v -27.217 h 4.453 v 22.765 h 9.775 v -22.765 h 4.824 v 38.351 z"
         inkscape:connector-curvature="0" /><path
         id="XMLID_124_"
         style="fill:#8dfffc"
         d="m 324.032,165.984 v 13.609 h -4.576 v -40.826 h 19.174 v 27.217 z m 0,-22.762 v 18.432 h 9.775 v -18.372 z"
         inkscape:connector-curvature="0" /><path
         id="XMLID_122_"
         style="fill:#8dfffc"
         d="m 367.701,165.984 h -4.824 v -22.887 h -9.775 v 22.887 h -4.576 V 125.16 h 4.576 v 13.606 h 14.599 z"
         inkscape:connector-curvature="0" /><path
         id="XMLID_119_"
         style="fill:#8dfffc"
         d="m 382.42,161.654 h 14.351 v 4.33 h -19.174 v -27.217 h 19.052 V 154.85 H 382.42 Z m 9.773,-11.257 v -7.175 h -9.773 v 7.175 z"
         inkscape:connector-curvature="0" /><path
         id="XMLID_117_"
         style="fill:#8dfffc"
         d="m 411.491,143.282 v 22.702 h -4.824 v -27.217 h 16.081 v 9.898 h -4.576 v -5.443 z"
         inkscape:connector-curvature="0" /><path
         id="XMLID_112_"
         style="fill:#8dfffc"
         d="m 435.983,165.984 v 13.609 h -4.576 v -40.826 h 19.174 v 27.217 z m 0,-22.762 v 18.432 h 9.775 v -18.372 z"
         inkscape:connector-curvature="0" /><path
         id="XMLID_107_"
         style="fill:#8dfffc"
         d="m 479.652,165.984 h -19.174 v -27.217 h 4.576 v 22.887 h 9.775 v -22.887 h 4.824 v 27.217 z"
         inkscape:connector-curvature="0" /><path
         id="XMLID_84_"
         style="fill:#8dfffc"
         d="m 508.722,165.984 h -4.824 v -22.887 h -9.775 v 22.887 h -4.576 v -27.217 h 19.174 v 27.217 z"
         inkscape:connector-curvature="0" /><path
         id="XMLID_82_"
         style="fill:#8dfffc"
         d="m 539.647,165.984 h -7.113 l -8.411,-11.939 h -0.93 v 11.939 h -4.576 V 125.16 h 4.576 v 25.174 l 9.279,-11.505 h 6.556 l -11.443,13.052 z"
         inkscape:connector-curvature="0" /></g><path
       id="divider"
       style="fill:#ffffff"
       d="m 560.058,125.161 h 4.576 v 50.102 h -4.576 z"
       inkscape:connector-curvature="0" /><g
       id="privacy"><path
         id="XMLID_76_"
         style="fill:#ffffff"
         d="m 591.475,150.52 0.063,15.464 H 586.9 v -34.638 h 17.938 v 19.174 z m 8.537,-14.844 h -8.537 v 10.515 h 8.537 z"
         inkscape:connector-curvature="0" /><path
         id="XMLID_74_"
         style="fill:#ffffff"
         d="m 619.557,143.282 v 22.702 h -4.824 v -27.217 h 16.081 v 9.898 h -4.576 v -5.443 z"
         inkscape:connector-curvature="0" /><path
         id="XMLID_71_"
         style="fill:#ffffff"
         d="m 639.474,125.161 h 4.576 v 8.04 h -4.576 z m 0,13.669 4.576,-0.063 v 27.217 h -4.576 z"
         inkscape:connector-curvature="0" /><path
         id="XMLID_69_"
         style="fill:#ffffff"
         d="m 666.937,165.984 h -8.66 l -7.424,-27.217 h 6.185 l 4.949,22.887 h 1.732 l 4.949,-22.887 h 5.689 z"
         inkscape:connector-curvature="0" /><path
         id="XMLID_66_"
         style="fill:#ffffff"
         d="m 695.513,143.097 h -14.351 v -4.33 h 19.174 v 27.217 h -19.052 v -16.083 h 14.228 v -6.804 z m -9.775,11.259 v 7.175 h 9.775 v -7.175 z"
         inkscape:connector-curvature="0" /><path
         id="XMLID_64_"
         style="fill:#ffffff"
         d="m 715.056,143.282 v 18.372 h 13.857 v 4.33 h -18.681 v -27.217 h 19.174 v 9.898 h -4.578 v -5.383 z"
         inkscape:connector-curvature="0" /><path
         id="XMLID_62_"
         style="fill:#ffffff"
         d="m 758.477,177.118 h -19.174 v -4.33 h 14.351 v -6.804 h -14.228 v -27.217 h 4.453 v 22.765 h 9.775 v -22.765 h 4.824 v 38.351 z"
         inkscape:connector-curvature="0" /></g></g></svg>