<?xml version="1.0" encoding="UTF-8" standalone="no"?>
<!-- Generator: Adobe Illustrator 19.0.0, SVG Export Plug-In . SVG Version: 6.00 Build 0)  -->

<svg
   xmlns:dc="http://purl.org/dc/elements/1.1/"
   xmlns:cc="http://creativecommons.org/ns#"
   xmlns:rdf="http://www.w3.org/1999/02/22-rdf-syntax-ns#"
   xmlns:svg="http://www.w3.org/2000/svg"
   xmlns="http://www.w3.org/2000/svg"
   xmlns:sodipodi="http://sodipodi.sourceforge.net/DTD/sodipodi-0.dtd"
   xmlns:inkscape="http://www.inkscape.org/namespaces/inkscape"
   version="1.1"
   id="svg92"
   x="0px"
   y="0px"
   viewBox="135 90 97.207182 75.072294"
   width="66.273674"
   height="75.072296"
   xml:space="preserve"
   sodipodi:docname="logo_helmet.svg"
   inkscape:version="0.92.0 r"><metadata
     id="metadata98"><rdf:RDF><cc:Work
         rdf:about=""><dc:format>image/svg+xml</dc:format><dc:type
           rdf:resource="http://purl.org/dc/dcmitype/StillImage" /><dc:title></dc:title></cc:Work></rdf:RDF></metadata><defs
     id="defs96" /><sodipodi:namedview
     pagecolor="#ffffff"
     bordercolor="#666666"
     borderopacity="1"
     objecttolerance="10"
     gridtolerance="10"
     guidetolerance="10"
     inkscape:pageopacity="0"
     inkscape:pageshadow="2"
     inkscape:window-width="746"
     inkscape:window-height="480"
     id="namedview94"
     showgrid="false"
     fit-margin-top="1"
     fit-margin-left="1"
     fit-margin-right="1"
     fit-margin-bottom="1"
     inkscape:zoom="6.3725115"
     inkscape:cx="1.0716599"
     inkscape:cy="74.77838"
     inkscape:window-x="82"
     inkscape:window-y="480"
     inkscape:window-maximized="0"
     inkscape:current-layer="svg92" /><g
     id="logo"
     transform="translate(-5.0552459,-22.931059)"><g
       id="helmet"><path
         id="XMLID_147_"
         style="fill:#010011"
         d="m 144.838,185.826 -0.767,-13.757 1.595,-15.001 8.785,-14.42 9.116,-5.138 c 0,0 8.205,-1.658 8.453,-1.658 0.248,0 17.862,1.823 17.862,1.823 l 8.161,4.807 1.441,2.735 5.272,10.277 c 0,0 -10.691,-0.083 -10.774,0.166 -0.083,0.249 -4.807,3.978 -4.89,4.227 -0.083,0.249 -1.74,5.387 -1.74,5.636 0,0.249 0.746,6.547 0.746,6.547 l 1.784,3.066 -24.741,8.122 c 0,0 -9.282,3.481 -9.531,3.481 -0.249,0 -10.772,-0.913 -10.772,-0.913 z"
         inkscape:connector-curvature="0" /><circle
         id="XMLID_146_"
         style="fill:#42b9e0"
         cx="199.485"
         cy="166.978"
         r="6.5599999" /><circle
         id="XMLID_145_"
         style="fill:#fffaff"
         cx="199.485"
         cy="166.978"
         r="6.5599999" /><polygon
         id="XMLID_144_"
         style="fill:#ffffff"
         points="152.463,187.815 152.463,201.407 142.766,200.329 143.248,186.738 151.82,186.24 " /><polygon
         id="XMLID_143_"
         style="fill:#19474c"
         points="160.087,200.164 195.558,189.307 199.485,184.666 200.116,179.776 194.398,178.408 189.333,174.19 156.441,187.152 156.441,201.407 " /><polygon
         id="XMLID_142_"
         style="fill:#5fbbc4"
         points="170.364,197.363 170.364,181.925 167.049,183.64 167.049,198.735 " /><polygon
         id="XMLID_141_"
         style="fill:#5fbbc4"
         points="174.01,195.648 174.01,180.21 172.684,181.925 172.684,197.02 " /><polygon
         id="XMLID_140_"
         style="fill:#5fbbc4"
         points="158.761,201.117 158.761,185.909 151.8,186.821 151.8,201.407 " /><path
         id="XMLID_134_"
         style="fill:#8dfffc"
         d="m 217.482,144.459 c -1.2,-1.296 -3.242,-1.374 -4.538,-0.174 l -8.3,7.687 c -1.414,-4.305 -7.663,-17.798 -30.46,-17.759 -3.955,0.007 -7.541,0.84 -10.771,1.957 -0.256,-0.653 -0.504,-1.31 -0.744,-1.972 -0.272,0.643 -0.811,1.084 -1.136,1.71 -0.187,0.359 -0.449,0.574 -0.738,0.674 0.069,0.177 0.133,0.355 0.203,0.532 -3.764,1.677 -6.962,4.063 -9.565,7.149 -7.222,8.569 -9.832,22.226 -7.827,40.9 h -2.081 v 17.572 l 16.548,0.855 c 32.764,-11.879 44.945,-12.236 43.706,-22.997 6.687,-0.955 11.515,-6.665 11.515,-13.612 0,-0.125 -0.006,-0.25 -0.009,-0.374 l 2.012,-1.864 c 1.296,-1.2 1.374,-3.242 0.174,-4.538 -0.487,-0.526 -1.113,-0.848 -1.771,-0.969 l 2.78,-2.575 c 1.296,-1.2 1.374,-3.242 0.174,-4.538 -0.467,-0.504 -1.061,-0.821 -1.689,-0.953 l 2.344,-2.171 c 1.294,-1.202 1.373,-3.244 0.173,-4.54 z m -64.144,1.444 c 4.777,-5.664 11.819,-9.201 20.956,-9.185 21.991,0.039 26.954,13.339 27.86,16.717 -0.864,-0.17 -1.756,-0.262 -2.669,-0.262 -7.613,0 -13.807,6.194 -13.807,13.807 0,2.462 0.651,4.773 1.785,6.776 l -29.325,11.822 v 0 l -12.08,-0.414 c -1.942,-17.902 0.504,-31.223 7.28,-39.261 z m 35.849,27.195 -0.028,0.011 c -0.004,-0.067 0.003,-0.083 0.028,-0.011 z m -31.047,27.478 -13.965,-0.495 v -12.273 l 13.965,0.58 c 0,0 26.023,-10.648 30.793,-12.524 2.426,2.875 6.001,4.752 10.012,4.907 -0.35,7.433 -6.108,8.339 -40.805,19.805 z m 41.346,-22.696 c -6.011,0 -10.902,-4.89 -10.902,-10.901 0,-6.011 4.891,-10.902 10.902,-10.902 6.011,0 10.901,4.891 10.901,10.902 0,6.011 -4.89,10.901 -10.901,10.901 z"
         inkscape:connector-curvature="0" /><path
         id="XMLID_131_"
         style="fill:#8dfffc"
         d="m 235.67,162.634 v 0 c -0.332,-1.703 -1.47,-3.058 -2.913,-3.78 1.017,-60.711 -48.221,-71.195 -76.482,-56.567 l 5.148,19.241 c 0.561,-0.154 1.16,-0.141 1.765,-0.249 0.287,-0.051 0.572,-0.108 0.856,-0.166 l -4.454,-17.085 c 18.689,-9.697 70.693,-8.592 70.502,54.266 -0.257,0.012 -0.515,0.036 -0.774,0.086 -1.41,0.273 -2.628,1.077 -3.432,2.267 -0.804,1.188 -1.096,2.619 -0.823,4.028 0.272,1.409 1.077,2.628 2.266,3.432 1.096,0.74 2.398,1.047 3.698,0.877 0.11,-0.014 0.25,-0.033 0.36,-0.054 2.908,-0.563 4.946,-3.387 4.283,-6.296 z m -4.679,4.394 c -0.899,0.18 -1.816,-0.012 -2.577,-0.527 -0.76,-0.513 -1.275,-1.293 -1.45,-2.194 -0.174,-0.901 0.013,-1.816 0.526,-2.577 0.514,-0.76 1.293,-1.275 2.194,-1.45 0.07,-0.013 0.139,-0.025 0.208,-0.034 1.785,-0.234 3.471,0.964 3.818,2.755 0.36,1.861 -0.86,3.667 -2.719,4.027 z"
         inkscape:connector-curvature="0" /><path
         id="XMLID_505_"
         style="fill:#fffaff"
         d="m 150.075,178.739 c 0,0 1.728,-32.966 32.592,-37.985 0.542,-0.089 -37.3,-4.46 -32.592,37.985 z"
         inkscape:connector-curvature="0" /><path
         id="XMLID_504_"
         style="fill:#8dfffc"
         d="m 185.144,123.629 c 0.162,-1.079 0.933,-2.089 1.913,-2.613 -18.186,-7.965 -32.093,2.811 -32.093,2.811 l 5.824,13.604 2.955,-1.4 -4.673,-11.068 c 11.187,-6.019 21.367,-3.271 26.074,-1.334 z"
         inkscape:connector-curvature="0" /><circle
         id="XMLID_503_"
         style="fill:#fffaff"
         cx="189.804"
         cy="124.442"
         r="1.762" /><circle
         id="XMLID_502_"
         style="fill:#fffaff"
         cx="230.33701"
         cy="163.65601"
         r="1.762" /><path
         id="XMLID_499_"
         style="fill:#8dfffc"
         d="m 195.097,124.369 c -0.019,-1.435 -0.597,-2.777 -1.625,-3.778 -1.029,-1 -2.393,-1.54 -3.82,-1.521 -1.392,0.019 -2.693,0.567 -3.684,1.538 -0.105,-0.051 -0.212,-0.099 -0.317,-0.15 -0.449,0.763 -0.868,1.542 -1.269,2.334 0.067,0.032 0.135,0.062 0.202,0.094 -0.157,0.521 -0.237,1.068 -0.229,1.628 0.019,1.435 0.597,2.777 1.625,3.778 0.948,0.922 2.175,1.453 3.485,1.515 0.111,0.005 0.223,0.007 0.335,0.005 1.435,-0.019 2.777,-0.597 3.778,-1.625 1,-1.028 1.54,-2.384 1.519,-3.818 z m -1.859,0.034 c 0,0.914 -0.371,1.781 -1.011,2.438 -0.64,0.658 -1.517,1.025 -2.435,1.038 -0.915,0.019 -1.793,-0.334 -2.451,-0.974 -0.658,-0.64 -1.032,-1.498 -1.044,-2.417 -0.013,-0.917 0.331,-1.785 0.971,-2.442 0.64,-0.658 1.494,-1.027 2.411,-1.04 0.072,-0.001 0.144,0 0.215,0.003 0.838,0.04 1.661,0.383 2.267,0.973 0.657,0.641 1.077,1.505 1.077,2.421 z"
         inkscape:connector-curvature="0" /><path
         id="XMLID_498_"
         style="fill:#8dfffc"
         d="m 143.698,183.806 c -0.062,0.073 -2.176,1.357 -2.176,1.357 l 2.548,0.197 z"
         inkscape:connector-curvature="0" /></g></g></svg>