<?xml version="1.0" encoding="UTF-8" standalone="no"?>
<svg width="54px" height="77px" viewBox="0 0 54 77" version="1.1" xmlns="http://www.w3.org/2000/svg" xmlns:xlink="http://www.w3.org/1999/xlink">
    <!-- Generator: sketchtool 40.2 (33826) - http://www.bohemiancoding.com/sketch -->
    <title>55F00D65-DF57-40B5-B743-150C76CBDA0A</title>
    <desc>Created with sketchtool.</desc>
    <defs></defs>
    <g id="desktop" stroke="none" stroke-width="1" fill="none" fill-rule="evenodd">
        <g id="desktop-assets" transform="translate(-169.000000, -214.000000)">
            <g id="logomark" transform="translate(169.000000, 214.000000)">
                <g id="Group-3" transform="translate(2.915144, 0.070906)" fill="#034698">
                    <path d="M37.2732503,35.4165308 C36.9523543,34.9024256 36.644423,34.3856942 36.3140911,33.8839472 C34.6938079,31.4226374 32.8502092,29.1620727 30.4548044,27.4151498 C28.9642451,26.3280828 27.3407399,25.5348345 25.478653,25.3606597 C24.0608189,25.2280397 22.6647716,25.4445417 21.3073116,25.821547 C19.9059711,26.2107562 18.5355464,26.7119625 17.1465568,27.1476698 C16.8365542,27.2449142 16.5059155,27.3209177 16.183792,27.3246252 C15.251176,27.3353615 14.3174859,27.3176737 13.385637,27.2776637 C13.2187834,27.2704804 12.9955447,27.1448892 12.9046382,27.0043135 C8.64446163,20.4158723 4.39594561,13.8197071 0.14673916,7.22408265 C0.0986392788,7.14939217 0.0590546872,7.06921771 0.00896023313,6.97992899 C0.0720961224,6.92694278 0.12633315,6.87333866 0.188011467,6.830857 C4.15406534,4.09982727 8.39069064,1.95110517 13.0900567,0.822715176 C19.0305072,-0.603664316 24.8128494,-0.227585811 30.360139,2.47965419 C34.4897478,4.49506114 37.7850116,7.50554292 40.4491467,11.2362046 C43.5088975,15.5208271 45.4512275,20.3066558 46.5952682,25.42948 C46.9701711,27.1082777 47.2008511,28.8196705 47.501648,30.5154609 C47.539775,30.7303409 47.507018,30.8637333 47.2785627,30.965303 C43.9946526,32.4252044 40.7154221,33.8955331 37.434734,35.3627722 C37.3897027,35.3828545 37.3409124,35.3942859 37.2732503,35.4165308" id="Fill-1"></path>
                </g>
                <path d="M29.3620472,37.0259676 C29.2291013,37.1065283 29.10352,37.1896379 28.9718782,37.2614705 C27.9494297,37.8188298 26.9232989,38.369392 25.9029983,38.930845 C24.0703698,39.9392823 22.7702922,41.4708618 21.7624194,43.2728564 C20.3388316,45.8182799 19.6253884,48.5727132 19.4366712,51.4759867 C19.2537075,54.2898943 19.6046756,57.0230867 20.6686265,59.6443593 C21.2253424,61.0160533 21.9881896,62.2567493 23.0513735,63.2962368 C23.1053036,63.3490685 23.1517925,63.4096242 23.2141613,63.4806072 C23.1812508,63.5266419 23.1613818,63.5771564 23.1245589,63.6026454 C20.6048769,65.3460925 18.0515173,67.0310694 15.2021172,68.1982336 C15.0246769,68.2709158 14.8479271,68.3456835 14.668569,68.4130363 C12.7929805,69.1175366 12.6803639,69.1121298 10.2732218,68.62977 C7.68050778,68.1101807 5.08426489,67.6084337 2.48679457,67.1132521 C2.1967377,67.0579487 2.0580382,66.9457199 1.97879231,66.6512834 C0.982963657,62.9527533 0.324524608,59.1979157 0.09537892,55.3707048 C-0.178184362,50.8029228 0.0899322029,46.289749 1.51750907,41.9057195 C2.52400101,38.8148315 4.05176679,36.0162173 6.41686942,33.7707143 C7.97815936,32.2883363 9.65827979,30.9290005 11.6879107,30.1081777 C11.8609015,30.0382761 12.058134,29.9883022 12.2424018,29.9932455 C16.0240345,30.0947381 19.8055137,30.2006333 23.5863792,30.3255293 C23.8448297,30.3341029 24.1418676,30.4417746 24.3470784,30.6002698 C26.5098854,32.2710346 28.065882,34.435668 29.3025936,36.8538011 C29.3250709,36.8979048 29.3355808,36.9481876 29.3620472,37.0259676" id="Fill-4" fill="#034698"></path>
                <g id="Group-8" transform="translate(0.153429, 26.409532)" fill="#FFC933">
                    <path d="M40.3232661,12.1179152 C39.1384134,12.7094916 37.9853971,13.288169 36.8274711,13.856728 C36.749069,13.8951932 36.6230274,13.8849203 36.5371073,13.8510895 C34.5344032,13.0634024 32.9060649,13.7570119 31.5054915,15.1908837 C30.0842819,16.6458417 29.2978834,18.4603491 28.8411263,20.4153548 C28.1440232,23.3990345 28.1723308,26.3627865 29.2853789,29.2574092 C29.7481965,30.4611076 30.4134631,31.5382879 31.4392103,32.3496875 C32.9669761,33.5581747 34.816405,33.6089982 36.4616972,32.4921169 C37.4248455,31.8382856 38.1501795,30.9624684 38.7262273,29.9606737 C38.8954591,29.6663917 39.1018974,29.4651059 39.4105958,29.331868 C39.8194832,29.155376 40.2121838,28.9409595 40.6818289,28.70816 C40.6268247,28.8911401 40.5984404,29.0096253 40.5560941,29.1227037 C39.6413525,31.5640086 38.3643658,33.7654852 36.3987147,35.5158838 C36.2729799,35.6278809 36.1987205,35.807308 36.1233103,35.9663439 C35.5517118,37.1718187 35.0192377,38.3976076 34.4076711,39.5819961 C33.9096417,40.5463297 33.1546193,41.2655827 32.1821118,41.7973758 C26.7298714,44.7787383 21.1258132,47.4231055 15.3319638,49.6624294 C14.507515,49.9810418 13.7061572,49.9245798 12.8853906,49.7862441 C10.0473442,49.3080551 7.25187416,48.6508253 4.50189576,47.7908422 C3.66417534,47.5288462 3.01870101,47.0895087 2.61142466,46.2924756 C1.79403353,44.6928482 0.960148817,43.1017943 0.129486109,41.5091957 C-0.0168848229,41.2285078 -0.0232521118,40.9547715 0.079698512,40.656473 C0.224918729,40.2356729 0.343825932,39.8056814 0.556938326,39.3752263 C0.697172112,39.9392282 0.849987047,40.5004495 0.972653252,41.0683134 C1.039318,41.3772709 1.16259792,41.536075 1.50382324,41.601883 C4.94085513,42.2647513 8.37013887,42.969406 11.8114668,43.6079439 C12.3133319,43.7010946 12.8842399,43.5734952 13.3943901,43.4380173 C15.7142313,42.8221878 17.8324673,41.7340395 19.8558843,40.4683952 C21.4613617,39.4641288 23.0129856,38.3726593 24.5877006,37.3185736 C24.6493789,37.2772505 24.7018515,37.2220243 24.7792562,37.1555985 C24.7298522,37.0975917 24.6987829,37.0417476 24.6518337,37.008612 C22.7844536,35.6916034 21.6762385,33.8316793 21.0547758,31.684811 C19.6067929,26.682403 20.0936987,21.8561008 22.5713412,17.2697814 C23.5452296,15.4670916 24.9265477,14.052916 26.7835714,13.1275111 C27.9394261,12.5516143 29.0577675,11.899405 30.1926025,11.2807949 C30.3142715,11.2144463 30.4334088,11.1433861 30.5816209,11.0585772 C30.4779031,10.8280177 30.3906022,10.6173087 30.2901832,10.413165 C28.9527456,7.69503427 27.2478465,5.26709184 24.8565843,3.3690115 C24.4121782,3.01633653 23.9574924,2.86008128 23.3894995,2.84749126 C19.6840442,2.76554028 15.9794327,2.64504686 12.2740541,2.56062423 C11.8056365,2.54996519 11.3340735,2.67601985 10.9248793,2.73055085 C11.4038068,2.09965965 13.300722,0.788675784 14.2362531,0.487364992 C14.5185619,0.902603859 14.7914347,1.33753877 15.1027414,1.74242756 C15.2022399,1.87172627 15.4013903,1.99129281 15.5588848,1.99662233 C16.823367,2.03918122 18.0886931,2.05849107 19.3538657,2.07030869 C19.5380568,2.07200796 19.7328345,2.02141617 19.9060555,1.95251865 C21.9425906,1.14258659 24.0144144,0.473384666 26.1909532,0.142954631 C27.991285,-0.130395509 29.6394156,0.259817801 31.2123661,1.11624796 C32.6652587,1.90717914 33.945007,2.92295412 35.0745487,4.13097791 C37.1589537,6.36018344 38.8492771,8.85988125 40.1260336,11.6405759 C40.1901668,11.7803019 40.2438668,11.924894 40.3232661,12.1179152" id="Fill-6"></path>
                </g>
                <g id="Group-11" transform="translate(29.535015, 34.056230)" fill="#FFC933">
                    <path d="M23.7172385,0.0587714385 C23.6588589,1.22392737 23.4169786,2.28959899 22.9443416,3.29896311 C22.3840969,4.49547823 21.51454,5.37229959 20.3181802,5.94387095 C16.8902773,7.58150012 13.4742651,9.24438657 10.0468992,10.8831743 C9.72400862,11.0375758 9.64230786,11.177997 9.73168005,11.5468923 C10.5394819,14.8800801 10.233315,18.109999 8.75019698,21.207993 C8.29121518,22.1667653 7.67542929,23.0185611 6.84722144,23.6982676 C5.26145963,24.9995193 3.46987329,24.8588664 2.12276975,23.3085949 C1.04355263,22.0665858 0.524273367,20.5663655 0.263674806,18.9709863 C-0.213334866,16.0508746 0.11546273,13.2265397 1.36022936,10.5309628 C1.7947393,9.59003276 2.35736216,8.7306675 3.13263712,8.034818 C4.32285987,6.96659748 5.62155667,6.54618357 7.13413302,7.37156351 C7.26101851,7.44076998 7.50151792,7.37055939 7.659933,7.29919021 C11.9863141,5.35036361 16.3087827,3.39296343 20.6320185,1.43718528 C21.5292692,1.03121514 22.4267501,0.625862911 23.3246145,0.221283078 C23.4377682,0.170305092 23.5539137,0.126124171 23.7172385,0.0587714385" id="Fill-9"></path>
                </g>
                <path d="M40.8002605,49.1577705 C40.7213981,48.2963198 40.6467551,47.4812127 40.5721121,46.6661828 C40.5697339,46.6405394 40.5675092,46.6148186 40.5637502,46.5894069 C40.4347934,45.7192281 40.434103,45.7177606 41.2436693,45.3267749 C44.1679426,43.9147619 47.0926762,42.5038303 50.0173331,41.0928214 C50.1199002,41.0433882 50.2242317,40.9975853 50.3987568,40.9174881 C50.3598626,41.1857404 50.3386127,41.4053319 50.2952691,41.6203663 C49.8632908,43.7625231 48.8148361,45.4027012 46.7392533,46.3153616 C44.9618591,47.0969468 43.2334854,47.9917649 41.4831714,48.835914 C41.2649191,48.9411913 41.0448257,49.0426066 40.8002605,49.1577705" id="Fill-12" fill="#FFC933"></path>
                <path d="M47.3849118,47.2050201 C47.0163762,49.4357705 46.2092648,51.3004834 44.09287,52.3244457 C42.6896115,53.0034571 41.2967095,53.7040954 39.8397511,54.4244298 C39.9917989,53.8936408 40.1556607,53.4260337 40.2564633,52.9451413 C40.4118098,52.2040296 40.51407,51.4517181 40.6625889,50.7089843 C40.6929678,50.5572861 40.7951513,50.3583175 40.9202723,50.2969122 C43.010124,49.2719457 45.1088745,48.2653622 47.206014,47.2556119 C47.2391546,47.2396234 47.2775884,47.2348345 47.3849118,47.2050201" id="Fill-14" fill="#FFC933"></path>
            </g>
        </g>
    </g>
</svg>