<?xml version="1.0" encoding="UTF-8" standalone="no"?>
<svg width="19px" height="37px" viewBox="0 0 19 37" version="1.1" xmlns="http://www.w3.org/2000/svg" xmlns:xlink="http://www.w3.org/1999/xlink">
    <!-- Generator: sketchtool 39.1 (31720) - http://www.bohemiancoding.com/sketch -->
    <title>23C2464A-DE3A-401E-A373-0EEAF56BE3A6</title>
    <desc>Created with sketchtool.</desc>
    <defs></defs>
    <g id="assets" stroke="none" stroke-width="1" fill="none" fill-rule="evenodd">
        <g transform="translate(-149.000000, -162.000000)" id="logo_gray" fill="#E8E8E8">
            <path d="M167.728387,189.588082 C167.187234,190.511226 166.602057,191.442158 165.749013,192.088629 C165.366345,192.378847 164.938977,192.604384 164.503142,192.805877 C162.610122,193.681611 160.549473,194.122864 158.5,194.509595 C156.450527,194.122864 154.389878,193.681611 152.496858,192.805877 C152.061023,192.604384 151.633316,192.378847 151.250648,192.088629 C150.397943,191.442158 149.812766,190.511226 149.271613,189.588082 C149.00002,191.005646 149.003068,191.94606 149.00002,193.256951 C148.996634,194.677901 149.414182,196.097158 150.186629,197.289523 C150.319039,197.494064 150.462962,197.693864 150.645492,197.855059 C150.982104,198.153066 151.424373,198.299698 151.859192,198.413483 C152.821618,198.665095 153.457591,198.829338 154.445754,198.946508 C154.707187,198.977325 155.32826,198.969875 155.586984,198.919756 C156.020449,198.835772 156.37975,198.604817 156.688255,198.2892 C157.473909,197.485598 157.988309,196.438173 158.304602,195.422241 L158.695398,195.422241 C159.011691,196.438173 159.526091,197.485598 160.311407,198.2892 C160.62025,198.604817 160.979551,198.869636 161.413016,198.95362 C161.67174,199.003739 162.292474,198.994257 162.554246,198.963441 C163.54207,198.84627 164.178044,198.673561 165.140808,198.421949 C165.575627,198.308165 166.017896,198.157468 166.354508,197.859461 C166.536699,197.697928 166.680961,197.496096 166.813371,197.291555 C167.585818,196.09919 168.003366,194.678917 167.99998,193.258306 C167.996932,191.947076 167.99998,191.005646 167.728387,189.588082 Z M158.499959,190.508406 C158.499959,190.508406 160.874704,186.791015 162.989349,186.515515 C162.989349,186.515515 158.499959,170.751297 158.499959,162.696949 C158.499959,170.751297 154.010568,186.515515 154.010568,186.515515 C156.125213,186.791015 158.499959,190.508406 158.499959,190.508406 Z"></path>
        </g>
    </g>
</svg>