<?xml version="1.0" encoding="utf-8"?>
<svg version="1.0" id="Layer_1" xmlns="http://www.w3.org/2000/svg" xmlns:xlink="http://www.w3.org/1999/xlink" x="0px" y="0px"
	 width="96px" height="96px" viewBox="0 0 96 96" enable-background="new 0 0 96 96" xml:space="preserve">
<polygon fill="#231F20" points="64,8.476 66,20 48,26 30,20 32,8.364 6,14 4,26 48,34 92,26 90,14 "/>
<polygon fill="#231F20" points="35,2 48,0 61,2 64,17 48,22 32,17 "/>
<polygon fill="#231F20" points="68,48 80,32 48,50 16,32 30,48 0,66 0,88 28,92.667 28,62 29.822,92.971 48,96 96,88 96,64 "/>
</svg>
